<svg width="120" height="120" viewBox="0 0 120 120" fill="none" xmlns="http://www.w3.org/2000/svg">
<path d="M60 101C85.9574 101 107 97.6421 107 93.5C107 89.3579 85.9574 86 60 86C34.0426 86 13 89.3579 13 93.5C13 97.6421 34.0426 101 60 101Z" fill="#F8F8F8"/>
<path fill-rule="evenodd" clip-rule="evenodd" d="M31.7149 51.4957L57.245 30.24C59.217 28.5981 62.2166 28.5853 64.2051 30.2103L90.2491 51.4926C91.3627 52.4027 92 53.7076 92 55.0779V94H30V55.0512C30 53.6964 30.623 52.4048 31.7149 51.4957Z" fill="#EEEEEE" stroke="#363636"/>
<path fill-rule="evenodd" clip-rule="evenodd" d="M64.1258 26.2797L65 27.0379C64.0001 27.1707 63.0312 27.5929 62.2278 28.3038L36.7489 50.8477C35.632 51.8359 34.9928 53.2538 34.9928 54.7431V93.9998L30 94V52.7508C30 51.2616 30.6392 49.8436 31.7561 48.8554L57.235 26.3115C59.1975 24.575 62.1472 24.5614 64.1258 26.2797Z" fill="#363636" fill-opacity="0.1"/>
<path fill-rule="evenodd" clip-rule="evenodd" d="M70.6362 63H78.3638C79.8197 63 81 64.1961 81 65.6717V94H68V65.6717C68 64.1961 69.1803 63 70.6362 63Z" fill="white" stroke="#363636"/>
<path d="M76.9092 79.3435V82.3761" stroke="#363636" stroke-linecap="round"/>
<path d="M53.4145 77H49.5855C48.1576 77 47 75.8853 47 74.5103V66.4897C47 65.1147 48.1576 64 49.5855 64H53.4145C54.8424 64 56 65.1147 56 66.4897V74.5103C56 75.8853 54.8424 77 53.4145 77Z" fill="white" stroke="#363636"/>
<path fill-rule="evenodd" clip-rule="evenodd" d="M32 49L38 43.7566V38.592C38 37.1605 36.8424 36 35.4145 36H34.5855C33.1576 36 32 37.1605 32 38.592V49Z" fill="#EEEEEE" stroke="#363636" stroke-width="1.089"/>
<path d="M55.4817 27.784C58.0187 25.5114 61.8132 25.4048 64.4698 27.4944L64.6827 27.6686L99.9476 57.6971C101.207 58.7692 101.357 60.6579 100.284 61.9156C99.2521 63.125 97.4643 63.3106 96.209 62.37L96.061 62.2517L60.796 32.2231C60.4472 31.9262 59.9462 31.9073 59.5784 32.1631L59.4816 32.2396L25.9956 62.2354C24.7639 63.3388 22.87 63.2358 21.7654 62.0054C20.7034 60.8223 20.7578 59.0277 21.8586 57.9105L21.9957 57.7797L55.4817 27.784Z" fill="white" stroke="#363636"/>
<path d="M38.373 35H31.627C30.7284 35 30 35.6716 30 36.5C30 37.3284 30.7284 38 31.627 38H38.373C39.2716 38 40 37.3284 40 36.5C40 35.6716 39.2716 35 38.373 35Z" fill="white" stroke="#363636" stroke-width="1.089"/>
<rect x="25" y="93.5" width="70" height="1" rx="0.5" fill="#363636"/>
</svg>
