<svg width="120" height="120" viewBox="0 0 120 120" fill="none" xmlns="http://www.w3.org/2000/svg">
<path d="M60 101C85.9574 101 107 97.6421 107 93.5C107 89.3579 85.9574 86 60 86C34.0426 86 13 89.3579 13 93.5C13 97.6421 34.0426 101 60 101Z" fill="#F8F8F8"/>
<path d="M22 85C22 84.4477 22.4477 84 23 84H29.656C30.3258 84 30.8063 84.6457 30.6138 85.2873L28.2138 93.2873C28.0869 93.7103 27.6976 94 27.256 94H23C22.4477 94 22 93.5523 22 93V85Z" fill="#F8F8F8" stroke="#363636"/>
<path d="M98 85C98 84.4477 97.5523 84 97 84H90.344C89.6742 84 89.1937 84.6457 89.3862 85.2873L91.7862 93.2873C91.9131 93.7103 92.3024 94 92.744 94H97C97.5523 94 98 93.5523 98 93V85Z" fill="#F8F8F8" stroke="#363636"/>
<rect x="21" y="68" width="78" height="8" fill="#EEEEEE"/>
<path fill-rule="evenodd" clip-rule="evenodd" d="M12 57C12 54.2386 14.2386 52 17 52V52C19.7614 52 22 54.2386 22 57V70C22 72.7614 24.2386 75 27 75H93C95.7614 75 98 72.7614 98 70V57C98 54.2386 100.239 52 103 52V52C105.761 52 108 54.2386 108 57V75V80C108 82.7614 105.761 85 103 85H98H22H17C14.2386 85 12 82.7614 12 80V75V57Z" fill="white"/>
<path d="M22.5 70V57H21.5V70H22.5ZM93 74.5H27V75.5H93V74.5ZM98.5 70V57H97.5V70H98.5ZM107.5 57V75H108.5V57H107.5ZM107.5 75V80H108.5V75H107.5ZM103 84.5H98V85.5H103V84.5ZM22 85.5H98V84.5H22V85.5ZM17 85.5H22V84.5H17V85.5ZM11.5 75V80H12.5V75H11.5ZM11.5 57V75H12.5V57H11.5ZM17 84.5C14.5147 84.5 12.5 82.4853 12.5 80H11.5C11.5 83.0376 13.9624 85.5 17 85.5V84.5ZM107.5 80C107.5 82.4853 105.485 84.5 103 84.5V85.5C106.038 85.5 108.5 83.0376 108.5 80H107.5ZM103 52.5C105.485 52.5 107.5 54.5147 107.5 57H108.5C108.5 53.9624 106.038 51.5 103 51.5V52.5ZM98.5 57C98.5 54.5147 100.515 52.5 103 52.5V51.5C99.9624 51.5 97.5 53.9624 97.5 57H98.5ZM93 75.5C96.0376 75.5 98.5 73.0376 98.5 70H97.5C97.5 72.4853 95.4853 74.5 93 74.5V75.5ZM21.5 70C21.5 73.0376 23.9624 75.5 27 75.5V74.5C24.5147 74.5 22.5 72.4853 22.5 70H21.5ZM17 51.5C13.9624 51.5 11.5 53.9624 11.5 57H12.5C12.5 54.5147 14.5147 52.5 17 52.5V51.5ZM17 52.5C19.4853 52.5 21.5 54.5147 21.5 57H22.5C22.5 53.9624 20.0376 51.5 17 51.5V52.5Z" fill="#363636"/>
<path opacity="0.1" fill-rule="evenodd" clip-rule="evenodd" d="M16.0838 52.0837C16.0288 52.3808 16 52.687 16 53V71V76C16 78.7614 18.2386 81 21 81H26H102H107C107.313 81 107.619 80.9712 107.916 80.9162C107.486 83.2401 105.448 85 103 85H98H22H17C14.2386 85 12 82.7614 12 80V75V57C12 54.5515 13.7599 52.5141 16.0838 52.0837Z" fill="#363636"/>
<path d="M22 50C22 47.2386 24.2386 45 27 45H42C44.7614 45 47 47.2386 47 50V69H22V50Z" fill="#F8F8F8" stroke="#363636"/>
<path d="M47 50C47 47.2386 49.2386 45 52 45H68C70.7614 45 73 47.2386 73 50V69H47V50Z" fill="#F8F8F8" stroke="#363636"/>
<path d="M73 50C73 47.2386 75.2386 45 78 45H93C95.7614 45 98 47.2386 98 50V69H73V50Z" fill="#F8F8F8" stroke="#363636"/>
<path d="M37.3084 52.5312C37.1725 51.8139 37.8139 51.1725 38.5312 51.3084C40.4079 51.664 43.6302 52.2 46 52.2C48.3698 52.2 51.5921 51.664 53.4688 51.3084C54.1861 51.1725 54.8275 51.8139 54.6916 52.5312C54.336 54.4079 53.8 57.6302 53.8 60C53.8 62.5082 54.4005 65.9714 54.7519 67.7834C54.8735 68.4106 54.395 69 53.7561 69H46H38.2439C37.605 69 37.1265 68.4106 37.2481 67.7834C37.5995 65.9714 38.2 62.5082 38.2 60C38.2 57.6302 37.664 54.4079 37.3084 52.5312Z" fill="url(#paint0_linear_3180_66018)" stroke="#363636"/>
<defs>
<linearGradient id="paint0_linear_3180_66018" x1="46" y1="78" x2="64" y2="60" gradientUnits="userSpaceOnUse">
<stop stop-color="#FF7100"/>
<stop offset="1" stop-color="#F6DA35"/>
</linearGradient>
</defs>
</svg>
